<svg width="30" height="30" viewBox="0 0 30 30" fill="none" xmlns="http://www.w3.org/2000/svg">
<path opacity="0.3" fill-rule="evenodd" clip-rule="evenodd" d="M15.001 2.99994C8.38598 2.99994 3.00098 8.38494 3.00098 14.9999C3.00098 21.6149 8.38598 26.9999 15.001 26.9999C21.616 26.9999 27.001 21.6149 27.001 14.9999C27.001 8.38494 21.616 2.99994 15.001 2.99994ZM13.501 22.4999C13.501 23.3284 14.1726 23.9999 15.001 23.9999C15.8294 23.9999 16.501 23.3284 16.501 22.4999C16.501 21.6715 15.8294 20.9999 15.001 20.9999C14.1726 20.9999 13.501 21.6715 13.501 22.4999ZM13.6665 18.0103C13.4711 18.8153 14.1726 19.4999 15.001 19.4999C15.8294 19.4999 16.4661 18.7942 16.8268 18.0484C17.8608 15.91 21.001 15.1325 21.001 11.9999C21.001 8.68494 18.316 5.99994 15.001 5.99994C12.1985 5.99994 9.84631 7.91885 9.18594 10.5151C8.98172 11.3179 9.67255 11.9999 10.501 11.9999C11.3294 11.9999 11.9709 11.2881 12.3703 10.5623C12.8816 9.63316 13.8709 8.99994 15.001 8.99994C16.651 8.99994 18.001 10.3499 18.001 11.9999C18.001 14.6542 14.4785 14.6665 13.6665 18.0103Z" fill="#3086CF"/>
<path d="M13.5 22.5C13.5 21.6716 14.1716 21 15 21C15.8284 21 16.5 21.6716 16.5 22.5C16.5 23.3284 15.8284 24 15 24C14.1716 24 13.5 23.3284 13.5 22.5ZM15 0C6.72 0 0 6.72 0 15C0 23.28 6.72 30 15 30C23.28 30 30 23.28 30 15C30 6.72 23.28 0 15 0ZM15 27C8.385 27 3 21.615 3 15C3 8.385 8.385 3 15 3C21.615 3 27 8.385 27 15C27 21.615 21.615 27 15 27ZM15 6C12.1975 6 9.84533 7.91891 9.18496 10.5151C8.98075 11.318 9.67157 12 10.5 12C11.3284 12 11.9699 11.2881 12.3693 10.5624C12.8806 9.63322 13.87 9 15 9C16.65 9 18 10.35 18 12C18 14.6542 14.4776 14.6666 13.6656 18.0103C13.4701 18.8154 14.1716 19.5 15 19.5C15.8284 19.5 16.4652 18.7943 16.8258 18.0485C17.8598 15.91 21 15.1326 21 12C21 8.685 18.315 6 15 6Z" fill="#323232"/>
</svg>
