<svg width="68" height="50" viewBox="0 0 68 50" fill="none" xmlns="http://www.w3.org/2000/svg">
<g clip-path="url(#clip0_504_3058)">
<path d="M3.0221 49.9494C1.19714 49.7189 0.126469 48.6414 0.0286873 46.937L0 46.4369H0.427687H0.855375L0.8899 46.7846C0.96457 47.5364 1.15266 47.9975 1.55352 48.4117C2.01757 48.8911 2.67473 49.1276 3.67471 49.1751C4.42569 49.2107 4.85802 49.1284 5.39483 48.8478C6.5668 48.235 6.88802 46.837 6.04853 46.0026C5.66373 45.6202 5.22651 45.4421 3.54492 44.9829C1.88228 44.5289 1.59601 44.423 1.16787 44.1038C0.824207 43.8476 0.632883 43.5909 0.471704 43.1698C0.295418 42.7092 0.28956 41.9252 0.458441 41.395C0.691642 40.6629 1.15277 40.106 1.79458 39.7813C2.35215 39.4992 2.67075 39.4367 3.54936 39.4371C4.477 39.4375 4.80542 39.5082 5.47193 39.8509C6.3854 40.3206 7.03104 41.3284 7.03327 42.2879L7.03385 42.5447H6.61347H6.19308L6.15924 42.2526C6.0769 41.542 5.55218 40.8038 4.90419 40.487C4.47364 40.2765 3.76334 40.1462 3.30234 40.1931C1.91387 40.3342 1.21712 40.9974 1.20075 42.1933C1.19549 42.5782 1.21128 42.658 1.3443 42.9189C1.50288 43.23 1.7555 43.4644 2.11326 43.6324C2.23338 43.6889 3.00047 43.9137 3.8179 44.132C5.77803 44.6555 6.29828 44.887 6.82237 45.4688C7.61735 46.3514 7.54121 48.0499 6.66427 48.9955C5.95237 49.7631 4.51908 50.1385 3.0221 49.9494ZM9.75862 49.9493C9.02614 49.807 8.51838 49.4386 8.23714 48.8453C8.06769 48.4878 8.06166 48.4544 8.06166 47.8738C8.06166 47.3029 8.07 47.2543 8.2271 46.9102C8.60517 46.0822 9.22878 45.8091 11.3456 45.5447C12.1017 45.4503 12.3213 45.398 12.4865 45.2727C12.8657 44.9854 12.8691 43.9923 12.4927 43.4999C12.0054 42.8624 10.4558 42.7496 9.75077 43.3003C9.38505 43.5859 9.1396 44.0675 9.1396 44.4994V44.653H8.7316H8.32361L8.35589 44.3568C8.45335 43.4627 9.00658 42.7318 9.80773 42.4385C10.5099 42.1815 11.5959 42.1718 12.2734 42.4164C12.8607 42.6285 13.298 43.1056 13.481 43.734C13.5554 43.9894 13.5718 44.3684 13.5972 46.422C13.6267 48.799 13.6275 48.8134 13.7381 48.9326C13.8249 49.0262 13.9047 49.0516 14.1016 49.0484L14.3538 49.0443V49.3861V49.7279L14.1234 49.7652C13.8145 49.8151 13.4265 49.7604 13.2352 49.64C13.0121 49.4995 12.9018 49.2604 12.8652 48.8379L12.8334 48.4699L12.7037 48.6563C12.2507 49.3069 11.782 49.696 11.2473 49.8651C10.9108 49.9716 10.1073 50.017 9.75862 49.9493ZM11.1429 49.1586C12.0133 48.8969 12.6163 48.2073 12.7512 47.3192C12.8117 46.9207 12.8142 45.8044 12.7547 45.7647C12.73 45.7483 12.6978 45.7686 12.6831 45.81C12.6398 45.9316 12.2288 46.0475 11.3205 46.1942C10.3231 46.3552 9.97994 46.4422 9.58103 46.6353C9.04468 46.8948 8.80591 47.3151 8.85097 47.9203C8.87996 48.3098 8.97119 48.5228 9.22104 48.7844C9.67896 49.2639 10.3548 49.3955 11.1429 49.1586ZM18.9162 49.9431C18.7646 49.9161 18.5041 49.8252 18.3373 49.7411C17.8035 49.472 17.5411 49.1477 17.3008 48.4598C17.1912 48.146 17.1887 48.0843 17.1728 45.2882L17.1565 42.4366H17.5601H17.9636V45.0287C17.9636 46.7421 17.9828 47.718 18.02 47.9074C18.0909 48.2675 18.263 48.6372 18.4478 48.8262C18.7743 49.1601 19.5011 49.3509 20.0701 49.2521C20.9 49.108 21.4307 48.534 21.7314 47.4553C21.8363 47.0789 21.843 46.9405 21.8619 44.7476L21.8819 42.4366H22.2792H22.6765V46.1126V49.7886H22.302H21.9274L21.9134 49.107L21.8994 48.4254L21.6918 48.7767C21.1465 49.6997 20.0758 50.1496 18.9162 49.9431ZM25.9677 49.9192C25.382 49.7663 24.8047 49.3411 24.383 48.752C24.2263 48.5331 23.9428 47.856 23.8551 47.4911C23.7178 46.9203 23.6692 46.1618 23.7309 45.5567C23.9054 43.8468 24.7 42.7055 25.9584 42.3571C26.3341 42.2531 27.1276 42.2509 27.483 42.3529C28.1303 42.5386 28.7129 43.0037 28.9744 43.5434C29.054 43.7075 29.136 43.8419 29.1566 43.842C29.1773 43.842 29.1942 42.8933 29.1942 41.7338V39.6255H29.5953H29.9964V44.707V49.7886H29.6219H29.2473L29.2333 49.0723L29.2193 48.356L29.0601 48.659C28.7554 49.2387 28.0863 49.7433 27.3867 49.9211C26.9889 50.0222 26.359 50.0213 25.9677 49.9192ZM27.2673 49.2429C28.1483 49.0677 28.7767 48.3708 29.0507 47.2648C29.1992 46.6656 29.1998 45.6056 29.0519 45.0152C28.7017 43.6163 27.8607 42.9168 26.6142 42.9877C25.9374 43.0262 25.4507 43.3272 25.058 43.9502C24.2341 45.2573 24.3393 47.5341 25.2733 48.6107C25.7818 49.1969 26.4436 49.4067 27.2673 49.2429ZM15.0056 44.68V39.5714H15.4317H15.8579V44.68V49.7886H15.4317H15.0056V44.68ZM36.1632 17.1098V0H52.0315H67.8997V17.1098V34.2195H52.0315H36.1632V17.1098ZM44.6506 21.3832C45.1067 21.0261 45.4208 20.8147 45.4669 20.8337C45.5081 20.8508 45.8808 21.1234 46.2951 21.4395C46.7094 21.7557 47.0607 22.0009 47.0759 21.9846C47.091 21.9682 46.9631 21.5009 46.7916 20.946C46.5313 20.1039 46.4911 19.9263 46.5482 19.8713C46.5859 19.8351 46.9608 19.5307 47.3813 19.195C47.8018 18.8592 48.1459 18.5724 48.1459 18.5575C48.1459 18.5426 47.6855 18.5482 47.1227 18.5698L46.0995 18.6092L45.7846 17.5622C45.6114 16.9863 45.4559 16.4968 45.4389 16.4744C45.422 16.452 45.2644 16.9203 45.0889 17.515L44.7696 18.5964L43.7128 18.5983L42.6559 18.6003L42.8063 18.7335C42.8891 18.8067 43.2665 19.1039 43.6451 19.3938C44.0237 19.6837 44.3339 19.9551 44.3345 19.997C44.335 20.0389 44.2114 20.4922 44.0598 21.0044C43.7676 21.991 43.744 22.1032 43.8467 22.0166C43.8811 21.9875 44.2429 21.7025 44.6506 21.3832ZM51.3695 21.3037C51.7577 21.0009 52.0405 20.8154 52.0855 20.834C52.1264 20.8509 52.4989 21.1234 52.9131 21.4395C53.3274 21.7557 53.6788 22.0009 53.6939 21.9846C53.7091 21.9682 53.5812 21.5012 53.4098 20.9466C53.2384 20.3921 53.1176 19.9197 53.1414 19.8968C53.1652 19.8739 53.5118 19.593 53.9116 19.2725C54.3114 18.952 54.6724 18.6544 54.7138 18.6111C54.7796 18.5423 54.6604 18.5372 53.7548 18.5708L52.7206 18.6091L52.3789 17.5081L52.0373 16.407L51.7114 17.5017L51.3856 18.5964H50.3362C49.5019 18.5964 49.2976 18.6103 49.3395 18.664C49.3686 18.7011 49.7432 18.9991 50.172 19.3262C50.6009 19.6533 50.9522 19.9496 50.9526 19.9848C50.9532 20.02 50.8295 20.4723 50.6778 20.9901C50.5261 21.5078 50.402 21.9624 50.402 22.0002C50.402 22.0429 50.464 22.0187 50.565 21.9366C50.6546 21.8637 51.0167 21.5789 51.3695 21.3037ZM57.8619 21.423C58.256 21.1143 58.6098 20.8488 58.6481 20.833C58.6868 20.817 59.053 21.0587 59.4734 21.3779C59.889 21.6934 60.2604 21.9645 60.2987 21.9804C60.345 21.9995 60.2635 21.6585 60.0561 20.965L59.7438 19.9209L60.5615 19.2721C61.0113 18.9153 61.3799 18.6028 61.3806 18.5777C61.3814 18.5525 60.9248 18.5495 60.366 18.5709L59.3499 18.6098L59.0288 17.5221C58.8522 16.9238 58.6946 16.4483 58.6786 16.4653C58.6626 16.4823 58.5116 16.9627 58.3429 17.5328L58.0363 18.5694L57.0018 18.584C56.4328 18.592 55.9676 18.6163 55.9681 18.638C55.9687 18.6597 56.3199 18.9451 56.7487 19.2721C57.1776 19.5992 57.5482 19.892 57.5724 19.9229C57.5988 19.9566 57.4974 20.3887 57.3186 21.0041C57.1548 21.5679 57.0206 22.0367 57.0204 22.0459C57.0197 22.0772 57.1451 21.9844 57.8619 21.423ZM41.2826 16.5379C41.7 16.2085 42.0709 15.9268 42.1068 15.912C42.1427 15.8972 42.5404 16.1644 42.9906 16.5058C43.4407 16.8472 43.8136 17.1219 43.8191 17.1163C43.8247 17.1107 43.688 16.6325 43.5154 16.0538L43.2015 15.0015L44.0179 14.3527C44.4669 13.996 44.8349 13.6863 44.8356 13.6646C44.8363 13.643 44.3795 13.6406 43.8205 13.6593L42.8042 13.6934L42.483 12.6046C42.3064 12.0057 42.1507 11.5279 42.1369 11.5427C42.1232 11.5574 41.9725 12.0377 41.802 12.6098L41.4921 13.65L40.4533 13.6646C39.8498 13.6731 39.4213 13.7 39.4308 13.7289C39.4398 13.7562 39.8154 14.0621 40.2654 14.4086C40.7155 14.7552 41.074 15.0668 41.0622 15.1012C41.0503 15.1355 40.9222 15.5759 40.7775 16.0798C40.6328 16.5837 40.5031 17.0277 40.4893 17.0664C40.4755 17.1051 40.4776 17.1368 40.4939 17.1368C40.5102 17.1368 40.8651 16.8673 41.2826 16.5379ZM47.9587 16.477C48.3658 16.1561 48.7184 15.8934 48.7421 15.8934C48.7659 15.8934 49.1399 16.1628 49.5733 16.4921C50.0067 16.8213 50.3722 17.0789 50.3856 17.0644C50.4039 17.0448 49.9826 15.5463 49.8233 15.0645C49.8119 15.0298 50.1731 14.7095 50.626 14.3527C51.079 13.996 51.4508 13.6863 51.4523 13.6646C51.4538 13.643 50.9947 13.6407 50.4322 13.6595L49.4095 13.6938L49.0946 12.6313C48.9215 12.0468 48.7653 11.5687 48.7475 11.5687C48.7298 11.5687 48.5749 12.0426 48.4033 12.6218L48.0912 13.6749L47.0281 13.6894L45.965 13.704L46.826 14.3687L47.687 15.0334L47.6183 15.2607C47.4431 15.8404 47.093 17.0688 47.093 17.104C47.093 17.1578 47.1193 17.1387 47.9587 16.477ZM54.5186 16.5379C54.9361 16.2085 55.307 15.9268 55.3429 15.912C55.3788 15.8972 55.7764 16.1644 56.2266 16.5058C56.6768 16.8472 57.0499 17.1217 57.0557 17.1158C57.0615 17.1099 56.9248 16.6313 56.752 16.0522L56.4378 14.9994L57.2551 14.3517C57.7046 13.9955 58.0725 13.6863 58.0727 13.6646C58.0727 13.643 57.6161 13.6403 57.0577 13.6587L56.0424 13.6921L55.7206 12.6034C55.5437 12.0047 55.3873 11.5273 55.3731 11.5425C55.3589 11.5578 55.2087 12.0383 55.0393 12.6102L54.7312 13.65L53.6947 13.6646C53.1246 13.6726 52.6582 13.6982 52.6582 13.7215C52.6582 13.7447 53.0194 14.0389 53.4609 14.3751C53.9023 14.7114 54.2741 15.0049 54.2871 15.0275C54.3058 15.0602 54.0839 15.8673 53.7407 17.0152C53.7207 17.0821 53.7168 17.1368 53.732 17.1368C53.7472 17.1368 54.1012 16.8673 54.5186 16.5379ZM61.1692 16.5162C61.6033 16.1748 61.9811 15.896 62.0087 15.8964C62.0362 15.8969 62.4198 16.1739 62.861 16.5119C63.3022 16.8499 63.6696 17.1198 63.6775 17.1117C63.6853 17.1036 63.5556 16.6471 63.3892 16.0972C63.2228 15.5473 63.0866 15.0716 63.0866 15.0401C63.0866 15.0086 63.442 14.6993 63.8763 14.3528C64.3106 14.0063 64.6733 13.7008 64.6823 13.6739C64.692 13.6451 64.2798 13.638 63.6796 13.6567L62.6604 13.6884L62.33 12.588L61.9995 11.4876L61.6762 12.5688L61.3529 13.65L60.3146 13.6646C59.7435 13.6726 59.2766 13.6969 59.2771 13.7186C59.2777 13.7403 59.6289 14.0257 60.0577 14.3527C60.4866 14.6798 60.8598 14.976 60.8871 15.0109C60.9296 15.0652 60.7536 15.7427 60.3527 17.0692C60.3414 17.1064 60.3429 17.1368 60.356 17.1368C60.3691 17.1368 60.735 16.8575 61.1692 16.5162Z" fill="#EE3B32"/>
<path d="M43.433 49.9664C42.5884 49.8068 41.9964 49.2954 41.7961 48.5524C41.6854 48.1419 41.721 47.312 41.864 46.9695C42.1866 46.1968 42.9261 45.8481 44.7616 45.6032C46.0688 45.4287 46.225 45.3695 46.3729 44.9926C46.4643 44.7599 46.4595 44.182 46.3639 43.8894C46.2593 43.5695 45.9768 43.2717 45.6411 43.1272C45.4035 43.025 45.2652 43.0074 44.6864 43.0059C44.0474 43.0043 43.9924 43.0127 43.7024 43.1572C43.1975 43.4088 42.8949 43.8366 42.8069 44.4232L42.7724 44.653H42.377H41.9816L42.0103 44.4773C42.2591 42.9562 43.1141 42.2711 44.7571 42.2763C46.0697 42.2805 46.7428 42.6688 47.1075 43.6325C47.2137 43.9131 47.2184 44.0083 47.243 46.3741L47.2685 48.825L47.4143 48.9602C47.532 49.0693 47.6024 49.0917 47.7798 49.0765L47.9995 49.0577L47.9849 49.4096L47.9704 49.7616L47.5771 49.7775C47.2592 49.7903 47.1421 49.7715 46.966 49.6796C46.6953 49.5383 46.5415 49.2322 46.5415 48.8345C46.5415 48.6853 46.5276 48.5483 46.5107 48.5301C46.4938 48.5118 46.3796 48.6408 46.2569 48.8167C45.8183 49.4458 45.352 49.7878 44.7431 49.927C44.4318 49.9982 43.715 50.0197 43.433 49.9664ZM44.9581 49.1432C45.5577 48.9172 46.0396 48.4668 46.282 47.906C46.4055 47.6202 46.4158 47.5373 46.4329 46.6937C46.4452 46.0892 46.4341 45.7882 46.3991 45.7882C46.3704 45.7882 46.3315 45.815 46.3127 45.8478C46.2436 45.9684 45.939 46.0545 45.0848 46.1948C43.5945 46.4396 43.1148 46.6107 42.7723 47.0195C42.4235 47.4358 42.4068 48.0847 42.7316 48.6077C42.9021 48.8822 43.1375 49.0655 43.4993 49.2056C43.8353 49.3356 44.526 49.3061 44.9581 49.1432ZM50.6121 49.8954C50.1026 49.7515 49.7795 49.5509 49.3962 49.1406C48.8825 48.5908 48.5792 47.912 48.4443 47.0104C48.366 46.4867 48.4086 45.2865 48.5222 44.8152C48.8251 43.5591 49.6121 42.6446 50.6349 42.3601C51.0214 42.2525 51.7909 42.2498 52.1564 42.3547C52.8179 42.5445 53.4179 43.0359 53.6692 43.5937C53.7308 43.7303 53.7992 43.8421 53.8213 43.8421C53.8434 43.8421 53.8614 42.8934 53.8614 41.7338V39.6255H54.2625H54.6636V44.707V49.7886H54.2891H53.9145L53.9005 49.0723L53.8865 48.356L53.7892 48.5723C53.6396 48.9046 53.0842 49.4648 52.7057 49.6651C52.0544 50.0097 51.3076 50.0918 50.6121 49.8954ZM51.9619 49.2477C52.827 49.0737 53.46 48.3623 53.7416 47.2478C53.8784 46.7062 53.8676 45.5172 53.7208 44.9606C53.5708 44.392 53.3984 44.0414 53.103 43.7047C52.6427 43.1799 52.0492 42.9441 51.2958 42.9868C50.5037 43.0316 49.9292 43.4613 49.5487 44.2935C49.4379 44.5358 49.3113 44.9165 49.2674 45.1395C49.1638 45.6664 49.1651 46.6153 49.2703 47.1397C49.4317 47.9447 49.8725 48.6888 50.3764 49.0073C50.7927 49.2704 51.3954 49.3617 51.9619 49.2477ZM63.9992 49.8955C63.4634 49.7442 63.0824 49.5029 62.7137 49.0814C62.0032 48.2694 61.6519 46.9682 61.7811 45.6279C61.8448 44.9667 61.9433 44.563 62.164 44.0587C62.511 43.2654 63.0127 42.7487 63.7194 42.4565C64.1393 42.283 64.9159 42.2229 65.4031 42.3263C66.0751 42.4688 66.7641 42.996 67.0486 43.5853C67.1168 43.7265 67.1895 43.8421 67.2102 43.8421C67.231 43.8421 67.2479 42.8933 67.2479 41.7338V39.6255H67.624H68V44.707V49.7886H67.6505H67.301L67.287 49.08L67.273 48.3713L67.0654 48.7226C66.4672 49.7352 65.1776 50.2284 63.9992 49.8955ZM65.432 49.2204C65.866 49.1101 66.1175 48.9603 66.4246 48.6291C66.9542 48.0582 67.2095 47.2526 67.2136 46.1396C67.2164 45.3653 67.12 44.8625 66.8582 44.286C66.4818 43.457 65.744 42.9771 64.846 42.9771C63.9264 42.9771 63.2455 43.467 62.8606 44.4054C62.6357 44.9537 62.5666 45.3709 62.5689 46.1666C62.5708 46.8002 62.589 46.9606 62.7068 47.3827C62.9912 48.4013 63.489 48.9995 64.2397 49.2247C64.5503 49.3179 65.0557 49.3161 65.432 49.2204ZM31.4504 44.707V39.6255H32.0933H32.7363L34.3316 43.9908C35.2091 46.3917 35.9533 48.4123 35.9855 48.481C36.0375 48.5923 36.223 48.1148 37.6759 44.1293L39.3079 39.6525L39.9666 39.6374L40.6254 39.6223V44.7055V49.7886H40.1741H39.7229L39.7209 45.3693C39.7192 41.6655 39.7081 40.9718 39.6524 41.0851C39.6158 41.1594 38.8794 43.1481 38.0159 45.5044L36.446 49.7886H36.0336H35.6213L34.4616 46.6397C33.8238 44.9077 33.094 42.9254 32.8399 42.2344C32.5858 41.5435 32.361 40.9779 32.3403 40.9776C32.3196 40.9772 32.3027 42.9596 32.3027 45.3828V49.7886H31.8765H31.4504V44.707ZM56.0173 46.1396V42.4906H56.367H56.7168L56.7305 43.3691L56.7443 44.2475L56.9449 43.8423C57.3872 42.9483 58.2047 42.3852 59.0631 42.3831L59.3263 42.3825V42.7847V43.1868L59.0882 43.2169C58.111 43.3404 57.4535 43.784 57.0834 44.5695C56.8113 45.1467 56.804 45.2198 56.7825 47.5857L56.7624 49.7886H56.3898H56.0173L56.0173 46.1396ZM59.8778 46.1396V42.4906H60.2789H60.68V46.1396V49.7886H60.2789H59.8778V46.1396ZM59.8778 40.3282V39.6255H60.2789H60.68V40.3282V41.031H60.2789H59.8778V40.3282ZM16.0584 33.9727C11.7429 33.785 8.08685 33.63 7.93384 33.6282L7.65563 33.6249L7.49078 30.7462C7.40012 29.163 7.31098 27.7094 7.29269 27.5162L7.25945 27.1648L3.72482 26.7562L0.190186 26.3476L0.200347 26.1075C0.218383 25.6814 2.03524 9.16448 2.06874 9.12211C2.08655 9.0996 3.1973 8.99183 4.53708 8.88262L6.97304 8.68406L7.00269 7.43693C7.019 6.751 7.04609 4.81533 7.06289 3.13544C7.07968 1.45554 7.09694 0.0799583 7.10123 0.078579C7.12152 0.0720612 14.7306 0.281829 14.736 0.289055C14.7691 0.333172 15.2991 9.54228 15.2701 9.56873C15.2487 9.58823 12.8129 10.7456 9.85718 12.1406C6.90148 13.5357 4.49868 14.6916 4.51763 14.7093C4.53657 14.727 7.19176 15.4668 10.4181 16.3533C13.6443 17.2399 16.3019 17.9818 16.3238 18.002C16.3457 18.0223 16.6814 20.9436 17.0699 24.4939C17.4584 28.0442 17.7846 30.9591 17.7948 30.9715C17.8212 31.0038 17.5871 31.413 20.9931 25.3808C22.7223 22.3184 24.1525 19.7974 24.1713 19.7786C24.1902 19.7598 26.1798 20.2489 28.5926 20.8655L32.9795 21.9866L33.1669 24.3557C33.2699 25.6587 33.3472 26.7323 33.3387 26.7415C33.3301 26.7507 31.4635 26.8945 29.1905 27.0611C26.9176 27.2276 25.0437 27.3799 25.0262 27.3995C25.0019 27.4267 24.6265 33.9425 24.6309 34.2601C24.6321 34.3501 25.0926 34.3655 16.0584 33.9727ZM30.9991 16.0441C29.772 14.53 28.5944 13.0773 28.3822 12.816L27.9964 12.3408L29.1751 10.5357C29.8235 9.54288 30.3723 8.69617 30.3949 8.65412C30.4293 8.5898 30.6649 8.61776 31.8794 8.83029C32.6734 8.96923 33.3321 9.09271 33.3432 9.10469C33.3655 9.12874 33.2672 18.7658 33.2444 18.7851C33.2366 18.7917 32.2262 17.5583 30.9991 16.0441ZM20.5895 3.6091C19.3521 2.14856 18.2281 0.82167 18.0918 0.660461L17.8439 0.367353L19.1446 0.399904C19.8601 0.417806 21.3183 0.447441 22.3853 0.465757L24.3252 0.499059L24.3552 0.776608C24.3718 0.92926 24.4586 1.99925 24.5481 3.15436L24.711 5.25457L23.7752 5.7596L22.8394 6.26463L20.5895 3.6091Z" fill="#009CDC"/>
<path d="M61.9995 11.4876L61.6762 12.5688L61.353 13.65L60.3146 13.6647C59.7435 13.6727 59.2767 13.697 59.2772 13.7187C59.2777 13.7404 59.6289 14.0257 60.0577 14.3528C60.4866 14.6798 60.8598 14.976 60.8871 15.011C60.9296 15.0652 60.7536 15.7427 60.3527 17.0692C60.3414 17.1064 60.343 17.1368 60.356 17.1368C60.3691 17.1368 60.735 16.8576 61.1691 16.5163V16.5162C61.6033 16.1748 61.9811 15.896 62.0086 15.8965C62.0362 15.8969 62.4198 16.1739 62.861 16.512C63.3022 16.85 63.6696 17.1199 63.6774 17.1118C63.6853 17.1037 63.5556 16.6471 63.3892 16.0972C63.2228 15.5473 63.0866 15.0716 63.0866 15.0401C63.0866 15.0086 63.4419 14.6994 63.8762 14.3529C64.3105 14.0063 64.6733 13.7008 64.6823 13.6739C64.692 13.6451 64.2798 13.638 63.6796 13.6567L62.6604 13.6885L62.33 12.5881L61.9995 11.4876ZM55.3731 11.5426C55.3589 11.5579 55.2087 12.0383 55.0393 12.6102L54.7313 13.65L53.6948 13.6647C53.1247 13.6727 52.6582 13.6983 52.6582 13.7216C52.6582 13.7448 53.0194 14.0389 53.4608 14.3751C53.9023 14.7114 54.2742 15.005 54.2871 15.0275C54.3059 15.0603 54.084 15.8674 53.7407 17.0152C53.7207 17.0821 53.7168 17.1368 53.732 17.1368C53.7472 17.1368 54.1012 16.8673 54.5186 16.5379C54.9361 16.2085 55.307 15.9269 55.3429 15.912C55.3788 15.8972 55.7765 16.1644 56.2267 16.5058C56.6769 16.8473 57.0499 17.1217 57.0557 17.1158C57.0615 17.1099 56.9249 16.6313 56.752 16.0522L56.4378 14.9995L57.2551 14.3518C57.7046 13.9956 58.0726 13.6863 58.0727 13.6647C58.0727 13.643 57.6161 13.6403 57.0577 13.6587L56.0424 13.6922L55.7207 12.6035C55.5438 12.0048 55.3873 11.5273 55.3731 11.5426ZM42.1369 11.5427C42.1232 11.5575 41.9725 12.0376 41.802 12.6098L41.4921 13.65L40.4533 13.6647C39.8498 13.6732 39.4213 13.7001 39.4308 13.729C39.4398 13.7563 39.8155 14.0622 40.2655 14.4087C40.7156 14.7553 41.0741 15.0669 41.0622 15.1012C41.0504 15.1356 40.9223 15.576 40.7776 16.0799C40.6328 16.5838 40.5032 17.0278 40.4894 17.0665C40.4756 17.1052 40.4777 17.1368 40.494 17.1368C40.5103 17.1368 40.8651 16.8673 41.2825 16.5379C41.7 16.2085 42.071 15.9269 42.1069 15.912C42.1427 15.8972 42.5404 16.1644 42.9906 16.5058C43.4408 16.8473 43.8136 17.122 43.8191 17.1163C43.8247 17.1107 43.688 16.6326 43.5154 16.0538L43.2015 15.0015L44.0179 14.3528C44.4669 13.996 44.8349 13.6863 44.8356 13.6647C44.8363 13.643 44.3795 13.6406 43.8205 13.6594L42.8043 13.6935L42.4831 12.6046C42.3064 12.0057 42.1506 11.5279 42.1369 11.5427ZM48.7475 11.5687C48.7298 11.5687 48.5749 12.0426 48.4033 12.6218L48.0912 13.6749L47.0281 13.6895L45.9649 13.704L46.826 14.3688L47.6871 15.0335L47.6184 15.2608C47.4431 15.8405 47.093 17.0688 47.093 17.104C47.093 17.1578 47.1193 17.1388 47.9586 16.4771C48.3658 16.1561 48.7184 15.8934 48.7421 15.8934C48.7659 15.8934 49.1399 16.1629 49.5733 16.4921C50.0067 16.8213 50.3723 17.0789 50.3857 17.0645C50.4039 17.0448 49.9826 15.5464 49.8234 15.0646C49.8119 15.0299 50.1731 14.7095 50.6261 14.3528C51.079 13.996 51.4508 13.6863 51.4523 13.6647C51.4538 13.643 50.9947 13.6407 50.4322 13.6596L49.4095 13.6939L49.0947 12.6313C48.9215 12.0469 48.7652 11.5687 48.7475 11.5687ZM52.0373 16.407L51.7115 17.5017L51.3856 18.5964H50.3362C49.502 18.5964 49.2976 18.6103 49.3396 18.664C49.3686 18.7011 49.7433 18.9991 50.1721 19.3262C50.6009 19.6533 50.9522 19.9497 50.9526 19.9848C50.9532 20.02 50.8294 20.4724 50.6778 20.9901C50.5261 21.5078 50.402 21.9624 50.402 22.0002C50.402 22.0429 50.4639 22.0188 50.565 21.9367C50.6546 21.8638 51.0167 21.579 51.3696 21.3037C51.7577 21.001 52.0405 20.8154 52.0855 20.8341C52.1264 20.851 52.4989 21.1235 52.9132 21.4396C53.3274 21.7557 53.6787 22.001 53.6939 21.9846C53.7091 21.9683 53.5812 21.5012 53.4098 20.9467C53.2384 20.3922 53.1176 19.9197 53.1414 19.8968C53.1652 19.8739 53.5117 19.5931 53.9116 19.2726C54.3114 18.9521 54.6724 18.6544 54.7138 18.6112C54.7796 18.5423 54.6604 18.5373 53.7548 18.5709L52.7206 18.6092L52.379 17.5081L52.0373 16.407ZM58.6787 16.4654C58.6627 16.4824 58.5116 16.9628 58.343 17.5329L58.0364 18.5694L57.0018 18.5841C56.4328 18.5921 55.9677 18.6164 55.9682 18.6381C55.9687 18.6598 56.3199 18.9451 56.7487 19.2721C57.1776 19.5992 57.5483 19.8921 57.5724 19.923C57.5988 19.9567 57.4974 20.3887 57.3186 21.0042C57.1548 21.5679 57.0207 22.0368 57.0205 22.046C57.0197 22.0772 57.1452 21.9844 57.862 21.423C58.2561 21.1144 58.6098 20.8489 58.6481 20.833C58.6869 20.817 59.0531 21.0588 59.4734 21.3779C59.889 21.6935 60.2604 21.9645 60.2987 21.9804C60.345 21.9995 60.2636 21.6586 60.0562 20.9651L59.7438 19.9209L60.5615 19.2721C61.0113 18.9154 61.3799 18.6029 61.3807 18.5777C61.3814 18.5526 60.9248 18.5495 60.366 18.571L59.3499 18.6098L59.0289 17.5221C58.8522 16.9238 58.6947 16.4484 58.6787 16.4654ZM45.439 16.4745C45.422 16.4521 45.2645 16.9204 45.0889 17.5151L44.7697 18.5964L43.7128 18.5983L42.6559 18.6003L42.8063 18.7336C42.8891 18.8068 43.2666 19.1039 43.6451 19.3938C44.0237 19.6837 44.3339 19.9552 44.3345 19.9971C44.3351 20.039 44.2114 20.4923 44.0597 21.0045C43.7676 21.9911 43.744 22.1032 43.8467 22.0166C43.8811 21.9876 44.2429 21.7026 44.6506 21.3833C45.1067 21.0262 45.4208 20.8147 45.4669 20.8337C45.5081 20.8508 45.8809 21.1235 46.2951 21.4396C46.7094 21.7557 47.0607 22.001 47.0759 21.9846C47.091 21.9683 46.9631 21.5009 46.7916 20.9461C46.5313 20.104 46.4911 19.9264 46.5483 19.8713C46.5859 19.8351 46.9608 19.5308 47.3813 19.1951C47.8018 18.8593 48.1459 18.5724 48.1459 18.5576C48.1459 18.5427 47.6855 18.5482 47.1228 18.5699L46.0996 18.6093L45.7847 17.5622C45.6115 16.9863 45.4559 16.4969 45.439 16.4745Z" fill="white"/>
</g>
<defs>
<clipPath id="clip0_504_3058">
<rect width="68" height="50" fill="white"/>
</clipPath>
</defs>
</svg>
